<svg xmlns="http://www.w3.org/2000/svg" width="156" height="36" fill="#fff" xmlns:v="https://vecta.io/nano"><path d="M72 17.07V13.9h12.506v3.17h-4.328v11.322h-3.85V17.07H72zm17.9 5.208v6.114h-3.878V13.9h3.738v5.7h.112c.244-.694.65-1.234 1.216-1.62s1.248-.587 2.044-.587c.763 0 1.426.174 1.988.524a3.55 3.55 0 0 1 1.314 1.444c.31.614.468 1.316.464 2.1v6.935H93.03v-6.114c.005-.538-.13-.96-.4-1.267s-.65-.46-1.145-.46c-.473 0-.853.153-1.138.46s-.43.73-.436 1.267zm14.094 6.322c-1.73 0-3.1-.493-4.082-1.48s-1.482-2.366-1.482-4.126c0-1.123.225-2.104.674-2.944a4.83 4.83 0 0 1 1.904-1.96c.82-.467 1.786-.7 2.9-.7 1.087 0 2.03.224 2.832.672a4.61 4.61 0 0 1 1.868 1.925c.445.83.668 1.823.668 2.98v.906h-7.026v.17c0 .524.16.958.478 1.302s.773.5 1.35.5c.398 0 .745-.082 1.04-.248a1.33 1.33 0 0 0 .618-.715h3.54c-.183 1.132-.735 2.033-1.658 2.703s-2.127 1.005-3.625 1.005zm-1.743-6.878h3.457c-.01-.467-.178-.847-.506-1.14-.323-.297-.726-.446-1.208-.446-.474 0-.88.146-1.223.44s-.5.675-.52 1.146zm21.037-7.822h3.878v9.567c0 1.104-.257 2.036-.773 2.795-.5.755-1.23 1.328-2.163 1.72s-2.02.58-3.274.58c-1.265 0-2.364-.193-3.296-.58-.927-.392-1.646-.965-2.156-1.72s-.76-1.7-.76-2.795V13.9h3.906v9.397a1.62 1.62 0 0 0 .61 1.31c.412.335.977.502 1.694.502.73 0 1.302-.168 1.714-.502s.618-.77.618-1.3V13.9zm13.492 4.528c-.037-.472-.213-.84-.527-1.104s-.78-.396-1.412-.396c-.604 0-1.044.104-1.32.3s-.417.472-.42.793c-.02.344.13.625.442.842.32.217.818.4 1.497.545l1.18.255c1.588.344 2.733.896 3.436 1.656s1.056 1.684 1.06 2.788c-.005 1.43-.525 2.53-1.56 3.298s-2.464 1.146-4.286 1.146c-1.25 0-2.342-.186-3.274-.56s-1.648-.946-2.164-1.72c-.5-.778-.768-1.774-.772-2.986h3.7c.033.665.26 1.172.682 1.52s1.014.517 1.763.517c.628 0 1.1-.113 1.42-.34s.487-.52.492-.878c-.005-.33-.166-.604-.485-.82s-.878-.42-1.68-.594l-1.433-.3c-1.274-.278-2.28-.743-3.014-1.394s-1.094-1.55-1.1-2.682c-.005-.92.24-1.724.73-2.413s1.182-1.234 2.058-1.62 1.9-.58 3.028-.58c1.162 0 2.166.196 3.014.587s1.5.943 1.96 1.656.698 1.536.703 2.484h-3.738zm8.597 9.964h-4.215l4.75-14.492h5.34L156 28.392h-4.215l-.83-2.774h-4.75l-.83 2.774zm1.714-5.718h2.98l-1.433-4.784h-.112l-1.434 4.784zM59.82 4.478v.36l-1.08.952-.534-.017-.406.215.1.43v.305l-.94.45-.164.63v1.185l.738.86-.092.36-.775.305v.484l-.924.485h-.608l-.958.952.148.144.167 1.077-.627 1.402-.24-.036-.055-.396-.596-.032.4.697.48.556-.203.827-.332.53h-.326l.05-.602-.28-.433-.412-.2-.043-.543.13-.682-.2-.126-.462.468.167.34.037.755.295.144.313.575.068.313.04.2-.13.414.48.036.37.16-.092.45.313.198-.018.18-.314.288.553.414v.54l-.425.25.258.45-.183.45-1.457.232V22l-.423.8-.683.145-.105.173-.393.65.02.36-.884.915h-.372l-.295.63-.48.25-.008.15-.12 1.862.35.45.15.627.02.017.368.306v.486l.884.736.092.828.33.603.647 1.175v1.78H49.8s.001-.016 0-.02c-.052-.132-.388-.416-.388-.416l-.514.04v-.6h-.352l-.148-.232v-.34l-.295-.02-.6-.665.075-.377-.295.036-.15-.27.02-.08.13-.55-.094-.934-.313-.108-.94-1.006-.794-.055-.94.54-.37.1-.57-.825-1.524-.1-.227-.016-.023.016-.474.343-.258-.288-.327.282-1.37.005v.575l-.258.34.7.7-.387.232-.94-.43-.5.576-.847-.003-.24-.8-.978-.27v.414l-.2.126-1.347-.34h-.57l-1.826.8v.36l-.736.484-.812.163-.295.43-.405.036-.22.502-.276.072.018 1.043c-.05.172-.044.377-.014.576.07.45.272.877.272.877l-.24.18-.994-.288c-.64-.12-1.036-.455-1.273-.768-.256-.337-.332-.65-.332-.65-.073-.486-.183-.665-.183-.665-.608-.34-1.07-1.6-1.07-1.6a.31.31 0 0 0-.019-.043c-.44-1.03-1.07-1.537-1.07-1.537h-.608l-.183-.197-1.033-.036v.7l-.645.484C20.6 31.17 19.923 30 19.923 30l.033-.635-2.1-2.48-1.955-.144-.164.738-3.486-.414-4-2.354v-.63H5.44l-.13-1.4-.48-.18v-.54h-.443l-.068-.388-.374-.097-.702-.844-.92-.108-.313-.25.043-.125.001-.001.14-.396-.1-.196-.094-.22.13-.324-.6-1.42-.167-.145v-.215l.258-.27v-.27l-.425-.486.037-1.06-.387-.414.037-.575-.432-.636.044-.852.13-.543-.635-.68.352-.468.644-1.024-.073-.502.183-.324.074-1.292L2.36 5.75v-.468l.197-.28.17-.24.37-1.15V3.3l.332-.377-.203-.36.023-.586.308-.292-.294-.04.018-.43-.183-.1V.83L3.28.346h.258l.167.43.608.234.645.107v.433l-.276.377-.37.125.074.575h.534l.37-.43v-.505l.148-.18-.295-.377.212-.36L5.44.58 5.274.418 5.44 0l2.285.686 2.823.736 1.088.234 4.813.755.105.013 1.175.137 5.97.704 5.193.223 2.434-.16V2.86l.5.286v.592l1.033.36.295-.324.774.25.222.36.756.25.6-.18 1.3.197.314-.484.386-.036.516-.54-.036-.197.148-.27 1.4.054.258.163.535.987.534.02.1-.287.462.27.037.47.295.196.014.38.004.144.313.017v.377l.35.25.15.322 1.253-.07 1.888-.038.75.72.6.86-.222.372h-.82l-.414-.46-.13.073.052.388.04.293-.388.682.258 1.042-.6.467-.054.916-.608.196v.306l.682.036.976-1.096.903.054.794-.6.552.018.148-.287-.128-.25-.6.073-.092-.414.6-.556.996-.52.776.035-.112-.34 1.234-.502.277-.556.775-.665 2.95-.666.183-.482.46-.126.112-.215.018-.34.26-.1-.02-.377-.22-.45L56 2.426h2.03l.485 1.482.443.02L59 4.4l.805.1z"/></svg>